<mxfile host="Electron" modified="2024-05-02T14:43:05.064Z" agent="Mozilla/5.0 (Windows NT 10.0; Win64; x64) AppleWebKit/537.36 (KHTML, like Gecko) draw.io/24.2.5 Chrome/120.0.6099.109 Electron/28.1.0 Safari/537.36" etag="_ER1VBjC5YefG2AUD18s" version="24.2.5" type="device">
  <diagram id="C5RBs43oDa-KdzZeNtuy" name="Page-1">
    <mxGraphModel dx="1034" dy="654" grid="1" gridSize="10" guides="1" tooltips="1" connect="1" arrows="1" fold="1" page="1" pageScale="1" pageWidth="2500" pageHeight="700" background="none" math="0" shadow="0">
      <root>
        <mxCell id="WIyWlLk6GJQsqaUBKTNV-0" />
        <mxCell id="WIyWlLk6GJQsqaUBKTNV-1" parent="WIyWlLk6GJQsqaUBKTNV-0" />
        <mxCell id="HRsbSEC_UIwpaZMOYt87-22" value="&lt;span style=&quot;font-style: italic; text-wrap: nowrap;&quot;&gt;Kullanıcı&lt;/span&gt;" style="html=1;whiteSpace=wrap;rounded=1;labelBackgroundColor=none;fillColor=#F45B69;strokeColor=#028090;fontColor=#E4FDE1;" parent="WIyWlLk6GJQsqaUBKTNV-1" vertex="1">
          <mxGeometry x="480" y="120" width="120" height="40" as="geometry" />
        </mxCell>
        <mxCell id="HRsbSEC_UIwpaZMOYt87-24" value="&lt;span style=&quot;font-style: italic; text-wrap: nowrap;&quot;&gt;Öğrenci&lt;/span&gt;" style="html=1;whiteSpace=wrap;rounded=1;labelBackgroundColor=none;fillColor=#F45B69;strokeColor=#028090;fontColor=#E4FDE1;" parent="WIyWlLk6GJQsqaUBKTNV-1" vertex="1">
          <mxGeometry x="360" y="240" width="120" height="40" as="geometry" />
        </mxCell>
        <mxCell id="HRsbSEC_UIwpaZMOYt87-25" value="&lt;span style=&quot;font-style: italic; text-wrap: nowrap;&quot;&gt;Öğretim Elemanı&lt;/span&gt;" style="html=1;whiteSpace=wrap;rounded=1;labelBackgroundColor=none;fillColor=#F45B69;strokeColor=#028090;fontColor=#E4FDE1;" parent="WIyWlLk6GJQsqaUBKTNV-1" vertex="1">
          <mxGeometry x="600" y="240" width="120" height="40" as="geometry" />
        </mxCell>
        <mxCell id="HRsbSEC_UIwpaZMOYt87-26" value="&lt;span style=&quot;font-style: italic; text-wrap: nowrap;&quot;&gt;Danışma&lt;/span&gt;" style="html=1;whiteSpace=wrap;rounded=1;labelBackgroundColor=none;fillColor=#F45B69;strokeColor=#028090;fontColor=#E4FDE1;" parent="WIyWlLk6GJQsqaUBKTNV-1" vertex="1">
          <mxGeometry x="480" y="360" width="120" height="40" as="geometry" />
        </mxCell>
        <mxCell id="HRsbSEC_UIwpaZMOYt87-27" value="&lt;i&gt;İdareci&lt;/i&gt;" style="html=1;whiteSpace=wrap;align=center;rounded=1;labelBackgroundColor=none;fillColor=#F45B69;strokeColor=#028090;fontColor=#E4FDE1;" parent="WIyWlLk6GJQsqaUBKTNV-1" vertex="1">
          <mxGeometry x="720" y="360" width="120" height="40" as="geometry" />
        </mxCell>
        <mxCell id="HRsbSEC_UIwpaZMOYt87-35" value="&lt;span style=&quot;font-style: italic; text-wrap: nowrap;&quot;&gt;Sistem&lt;/span&gt;" style="html=1;whiteSpace=wrap;rounded=1;labelBackgroundColor=none;fillColor=#F45B69;strokeColor=#028090;fontColor=#E4FDE1;" parent="WIyWlLk6GJQsqaUBKTNV-1" vertex="1">
          <mxGeometry x="1160" y="130" width="120" height="40" as="geometry" />
        </mxCell>
        <mxCell id="HRsbSEC_UIwpaZMOYt87-36" value="&lt;span style=&quot;text-wrap: nowrap;&quot;&gt;&lt;i&gt;Ana Ekranı&lt;/i&gt;&lt;/span&gt;" style="html=1;whiteSpace=wrap;rounded=1;labelBackgroundColor=none;fillColor=#F45B69;strokeColor=#028090;fontColor=#E4FDE1;" parent="WIyWlLk6GJQsqaUBKTNV-1" vertex="1">
          <mxGeometry x="1280" y="240" width="120" height="40" as="geometry" />
        </mxCell>
        <mxCell id="HRsbSEC_UIwpaZMOYt87-37" value="&lt;span style=&quot;font-style: italic; text-wrap: nowrap;&quot;&gt;Giriş Ekranı&lt;/span&gt;" style="html=1;whiteSpace=wrap;rounded=1;labelBackgroundColor=none;fillColor=#F45B69;strokeColor=#028090;fontColor=#E4FDE1;" parent="WIyWlLk6GJQsqaUBKTNV-1" vertex="1">
          <mxGeometry x="1040" y="240" width="120" height="40" as="geometry" />
        </mxCell>
        <mxCell id="HRsbSEC_UIwpaZMOYt87-39" value="" style="endArrow=diamondThin;endFill=1;endSize=24;html=1;rounded=1;exitX=0.5;exitY=0;exitDx=0;exitDy=0;entryX=1;entryY=0.5;entryDx=0;entryDy=0;labelBackgroundColor=none;strokeColor=#028090;fontColor=default;" parent="WIyWlLk6GJQsqaUBKTNV-1" source="HRsbSEC_UIwpaZMOYt87-36" target="HRsbSEC_UIwpaZMOYt87-35" edge="1">
          <mxGeometry width="160" relative="1" as="geometry">
            <mxPoint x="1320" y="190" as="sourcePoint" />
            <mxPoint x="1400" y="189.5" as="targetPoint" />
            <Array as="points">
              <mxPoint x="1340" y="190" />
              <mxPoint x="1340" y="150" />
            </Array>
          </mxGeometry>
        </mxCell>
        <mxCell id="HRsbSEC_UIwpaZMOYt87-47" value="&lt;span style=&quot;text-wrap: nowrap;&quot;&gt;&lt;i&gt;Öğrenci Ana Ekranı&lt;/i&gt;&lt;/span&gt;" style="html=1;whiteSpace=wrap;rounded=1;labelBackgroundColor=none;fillColor=#F45B69;strokeColor=#028090;fontColor=#E4FDE1;" parent="WIyWlLk6GJQsqaUBKTNV-1" vertex="1">
          <mxGeometry x="1160" y="360" width="120" height="40" as="geometry" />
        </mxCell>
        <mxCell id="HRsbSEC_UIwpaZMOYt87-48" value="&lt;span style=&quot;text-wrap: nowrap;&quot;&gt;&lt;i&gt;İdareci Ana Ekranı&lt;/i&gt;&lt;/span&gt;" style="html=1;whiteSpace=wrap;rounded=1;strokeColor=#028090;labelBackgroundColor=none;fillColor=#F45B69;fontColor=#E4FDE1;" parent="WIyWlLk6GJQsqaUBKTNV-1" vertex="1">
          <mxGeometry x="1280" y="480" width="120" height="40" as="geometry" />
        </mxCell>
        <mxCell id="HRsbSEC_UIwpaZMOYt87-49" value="&lt;span style=&quot;text-wrap: nowrap;&quot;&gt;&lt;i&gt;Danışma Ana Ekranı&lt;/i&gt;&lt;/span&gt;" style="html=1;whiteSpace=wrap;rounded=1;labelBackgroundColor=none;fillColor=#F45B69;strokeColor=#028090;fontColor=#E4FDE1;" parent="WIyWlLk6GJQsqaUBKTNV-1" vertex="1">
          <mxGeometry x="1520" y="480" width="120" height="40" as="geometry" />
        </mxCell>
        <mxCell id="HRsbSEC_UIwpaZMOYt87-50" value="&lt;span style=&quot;text-wrap: nowrap;&quot;&gt;&lt;i&gt;Öğretmen Ana Ekranı&lt;/i&gt;&lt;/span&gt;" style="html=1;whiteSpace=wrap;rounded=1;labelBackgroundColor=none;fillColor=#F45B69;strokeColor=#028090;fontColor=#E4FDE1;" parent="WIyWlLk6GJQsqaUBKTNV-1" vertex="1">
          <mxGeometry x="1400" y="360" width="120" height="40" as="geometry" />
        </mxCell>
        <mxCell id="HRsbSEC_UIwpaZMOYt87-58" value="" style="endArrow=diamondThin;endFill=1;endSize=24;html=1;rounded=1;entryX=0.5;entryY=1;entryDx=0;entryDy=0;labelBackgroundColor=none;strokeColor=#028090;fontColor=default;" parent="WIyWlLk6GJQsqaUBKTNV-1" edge="1">
          <mxGeometry width="160" relative="1" as="geometry">
            <mxPoint x="1100" y="240" as="sourcePoint" />
            <mxPoint x="1220" y="170" as="targetPoint" />
            <Array as="points">
              <mxPoint x="1100" y="210" />
              <mxPoint x="1220" y="210" />
            </Array>
          </mxGeometry>
        </mxCell>
        <mxCell id="HRsbSEC_UIwpaZMOYt87-59" value="&lt;span style=&quot;text-wrap: nowrap;&quot;&gt;&lt;i&gt;Dersler Ekranı&lt;/i&gt;&lt;/span&gt;" style="html=1;whiteSpace=wrap;rounded=1;labelBackgroundColor=none;fillColor=#F45B69;strokeColor=#028090;fontColor=#E4FDE1;" parent="WIyWlLk6GJQsqaUBKTNV-1" vertex="1">
          <mxGeometry x="990" y="360" width="130" height="40" as="geometry" />
        </mxCell>
        <mxCell id="HRsbSEC_UIwpaZMOYt87-60" value="&lt;span style=&quot;text-wrap: nowrap;&quot;&gt;&lt;i&gt;Belge Ekranı&lt;/i&gt;&lt;/span&gt;" style="html=1;whiteSpace=wrap;rounded=1;labelBackgroundColor=none;fillColor=#F45B69;strokeColor=#028090;fontColor=#E4FDE1;" parent="WIyWlLk6GJQsqaUBKTNV-1" vertex="1">
          <mxGeometry x="1680" y="280" width="160" height="40" as="geometry" />
        </mxCell>
        <mxCell id="HRsbSEC_UIwpaZMOYt87-61" value="&lt;span style=&quot;text-wrap: nowrap;&quot;&gt;&lt;i&gt;Haftalık Ders Program Ekranı&lt;/i&gt;&lt;/span&gt;" style="html=1;whiteSpace=wrap;rounded=1;labelBackgroundColor=none;fillColor=#F45B69;strokeColor=#028090;fontColor=#E4FDE1;" parent="WIyWlLk6GJQsqaUBKTNV-1" vertex="1">
          <mxGeometry x="1680" y="200" width="160" height="40" as="geometry" />
        </mxCell>
        <mxCell id="HRsbSEC_UIwpaZMOYt87-62" value="&lt;span style=&quot;text-wrap: nowrap;&quot;&gt;&lt;i&gt;Kullanıcı Ekran Bilgileri&lt;/i&gt;&lt;/span&gt;" style="html=1;whiteSpace=wrap;rounded=1;labelBackgroundColor=none;fillColor=#F45B69;strokeColor=#028090;fontColor=#E4FDE1;" parent="WIyWlLk6GJQsqaUBKTNV-1" vertex="1">
          <mxGeometry x="1680" y="120" width="160" height="40" as="geometry" />
        </mxCell>
        <mxCell id="HRsbSEC_UIwpaZMOYt87-63" value="&lt;span style=&quot;text-wrap: nowrap;&quot;&gt;&lt;i&gt;Ders Onay Ekranı&lt;/i&gt;&lt;/span&gt;" style="html=1;whiteSpace=wrap;rounded=1;labelBackgroundColor=none;fillColor=#F45B69;strokeColor=#028090;fontColor=#E4FDE1;" parent="WIyWlLk6GJQsqaUBKTNV-1" vertex="1">
          <mxGeometry x="1680" y="480" width="160" height="40" as="geometry" />
        </mxCell>
        <mxCell id="HRsbSEC_UIwpaZMOYt87-67" value="" style="endArrow=diamondThin;endFill=1;endSize=24;html=1;rounded=1;entryX=0;entryY=0.5;entryDx=0;entryDy=0;exitX=1;exitY=0.5;exitDx=0;exitDy=0;labelBackgroundColor=none;strokeColor=#028090;fontColor=default;" parent="WIyWlLk6GJQsqaUBKTNV-1" source="HRsbSEC_UIwpaZMOYt87-59" target="HRsbSEC_UIwpaZMOYt87-47" edge="1">
          <mxGeometry width="160" relative="1" as="geometry">
            <mxPoint x="1040" y="370" as="sourcePoint" />
            <mxPoint x="1200" y="470" as="targetPoint" />
            <Array as="points" />
          </mxGeometry>
        </mxCell>
        <mxCell id="HRsbSEC_UIwpaZMOYt87-68" value="" style="endArrow=diamondThin;endFill=1;endSize=24;html=1;rounded=1;exitX=0;exitY=0.5;exitDx=0;exitDy=0;entryX=0.75;entryY=0;entryDx=0;entryDy=0;fillColor=#F45B69;strokeColor=#028090;labelBackgroundColor=none;fontColor=default;" parent="WIyWlLk6GJQsqaUBKTNV-1" source="HRsbSEC_UIwpaZMOYt87-62" target="HRsbSEC_UIwpaZMOYt87-36" edge="1">
          <mxGeometry width="160" relative="1" as="geometry">
            <mxPoint x="1420" y="190" as="sourcePoint" />
            <mxPoint x="1580" y="190" as="targetPoint" />
            <Array as="points">
              <mxPoint x="1370" y="140" />
            </Array>
          </mxGeometry>
        </mxCell>
        <mxCell id="HRsbSEC_UIwpaZMOYt87-69" value="" style="endArrow=diamondThin;endFill=1;endSize=24;html=1;rounded=1;exitX=0;exitY=0.5;exitDx=0;exitDy=0;entryX=1;entryY=0;entryDx=0;entryDy=0;fillColor=#F45B69;strokeColor=#028090;labelBackgroundColor=none;fontColor=default;" parent="WIyWlLk6GJQsqaUBKTNV-1" source="HRsbSEC_UIwpaZMOYt87-61" target="HRsbSEC_UIwpaZMOYt87-36" edge="1">
          <mxGeometry width="160" relative="1" as="geometry">
            <mxPoint x="1480" y="250" as="sourcePoint" />
            <mxPoint x="1640" y="250" as="targetPoint" />
            <Array as="points">
              <mxPoint x="1400" y="220" />
            </Array>
          </mxGeometry>
        </mxCell>
        <mxCell id="HRsbSEC_UIwpaZMOYt87-70" value="" style="endArrow=diamondThin;endFill=1;endSize=24;html=1;rounded=1;exitX=0;exitY=0.5;exitDx=0;exitDy=0;entryX=1;entryY=0.5;entryDx=0;entryDy=0;fillColor=#F45B69;strokeColor=#028090;labelBackgroundColor=none;fontColor=default;" parent="WIyWlLk6GJQsqaUBKTNV-1" source="HRsbSEC_UIwpaZMOYt87-60" target="HRsbSEC_UIwpaZMOYt87-36" edge="1">
          <mxGeometry width="160" relative="1" as="geometry">
            <mxPoint x="1480" y="269.5" as="sourcePoint" />
            <mxPoint x="1640" y="269.5" as="targetPoint" />
            <Array as="points">
              <mxPoint x="1520" y="300" />
              <mxPoint x="1520" y="260" />
            </Array>
          </mxGeometry>
        </mxCell>
        <mxCell id="HRsbSEC_UIwpaZMOYt87-71" value="&lt;span style=&quot;text-wrap: nowrap;&quot;&gt;&lt;i&gt;Ders Seçim Ekranı&lt;/i&gt;&lt;/span&gt;" style="html=1;whiteSpace=wrap;rounded=1;labelBackgroundColor=none;fillColor=#F45B69;strokeColor=#028090;fontColor=#E4FDE1;" parent="WIyWlLk6GJQsqaUBKTNV-1" vertex="1">
          <mxGeometry x="990" y="450" width="130" height="40" as="geometry" />
        </mxCell>
        <mxCell id="HRsbSEC_UIwpaZMOYt87-73" value="Fakülte" style="html=1;whiteSpace=wrap;rounded=1;labelBackgroundColor=none;fillColor=#F45B69;strokeColor=#028090;fontColor=#E4FDE1;" parent="WIyWlLk6GJQsqaUBKTNV-1" vertex="1">
          <mxGeometry x="150" y="120" width="130" height="40" as="geometry" />
        </mxCell>
        <mxCell id="HRsbSEC_UIwpaZMOYt87-88" value="" style="endArrow=diamondThin;endFill=1;endSize=24;html=1;rounded=1;exitX=0;exitY=0.5;exitDx=0;exitDy=0;entryX=1;entryY=0.5;entryDx=0;entryDy=0;labelBackgroundColor=none;strokeColor=#028090;fontColor=default;" parent="WIyWlLk6GJQsqaUBKTNV-1" source="HRsbSEC_UIwpaZMOYt87-63" target="HRsbSEC_UIwpaZMOYt87-49" edge="1">
          <mxGeometry width="160" relative="1" as="geometry">
            <mxPoint x="1640" y="590" as="sourcePoint" />
            <mxPoint x="1800" y="590" as="targetPoint" />
          </mxGeometry>
        </mxCell>
        <mxCell id="HRsbSEC_UIwpaZMOYt87-89" value="Ders" style="html=1;whiteSpace=wrap;rounded=1;labelBackgroundColor=none;fillColor=#F45B69;strokeColor=#028090;fontColor=#E4FDE1;" parent="WIyWlLk6GJQsqaUBKTNV-1" vertex="1">
          <mxGeometry x="830" y="500" width="130" height="40" as="geometry" />
        </mxCell>
        <mxCell id="HRsbSEC_UIwpaZMOYt87-106" value="" style="endArrow=open;endFill=1;endSize=12;html=1;rounded=1;exitX=0;exitY=0.5;exitDx=0;exitDy=0;entryX=1;entryY=0.5;entryDx=0;entryDy=0;labelBackgroundColor=none;strokeColor=#028090;fontColor=default;" parent="WIyWlLk6GJQsqaUBKTNV-1" source="HRsbSEC_UIwpaZMOYt87-36" target="HRsbSEC_UIwpaZMOYt87-37" edge="1">
          <mxGeometry width="160" relative="1" as="geometry">
            <mxPoint x="1160" y="300" as="sourcePoint" />
            <mxPoint x="1320" y="300" as="targetPoint" />
          </mxGeometry>
        </mxCell>
        <mxCell id="HRsbSEC_UIwpaZMOYt87-111" value="1" style="text;html=1;align=center;verticalAlign=middle;resizable=0;points=[];autosize=1;strokeColor=none;fillColor=none;labelBackgroundColor=none;fontColor=#000000;" parent="WIyWlLk6GJQsqaUBKTNV-1" vertex="1">
          <mxGeometry x="570" y="230" width="30" height="30" as="geometry" />
        </mxCell>
        <mxCell id="HRsbSEC_UIwpaZMOYt87-113" value="N" style="text;html=1;align=center;verticalAlign=middle;resizable=0;points=[];autosize=1;strokeColor=none;fillColor=none;labelBackgroundColor=none;fontColor=#000000;" parent="WIyWlLk6GJQsqaUBKTNV-1" vertex="1">
          <mxGeometry x="790" y="485" width="30" height="30" as="geometry" />
        </mxCell>
        <mxCell id="HRsbSEC_UIwpaZMOYt87-116" value="1" style="text;html=1;align=center;verticalAlign=middle;resizable=0;points=[];autosize=1;strokeColor=none;fillColor=none;labelBackgroundColor=none;fontColor=#000000;" parent="WIyWlLk6GJQsqaUBKTNV-1" vertex="1">
          <mxGeometry x="450" y="110" width="30" height="30" as="geometry" />
        </mxCell>
        <mxCell id="HRsbSEC_UIwpaZMOYt87-117" value="N" style="text;html=1;align=center;verticalAlign=middle;resizable=0;points=[];autosize=1;strokeColor=none;fillColor=none;labelBackgroundColor=none;fontColor=#000000;" parent="WIyWlLk6GJQsqaUBKTNV-1" vertex="1">
          <mxGeometry x="280" y="110" width="30" height="30" as="geometry" />
        </mxCell>
        <mxCell id="HRsbSEC_UIwpaZMOYt87-118" value="" style="endArrow=block;endSize=16;endFill=0;html=1;rounded=1;exitX=0.5;exitY=0;exitDx=0;exitDy=0;entryX=0.5;entryY=1;entryDx=0;entryDy=0;labelBackgroundColor=none;strokeColor=#028090;fontColor=default;" parent="WIyWlLk6GJQsqaUBKTNV-1" source="HRsbSEC_UIwpaZMOYt87-24" target="HRsbSEC_UIwpaZMOYt87-22" edge="1">
          <mxGeometry width="160" relative="1" as="geometry">
            <mxPoint x="390" y="230" as="sourcePoint" />
            <mxPoint x="510" y="160" as="targetPoint" />
            <Array as="points">
              <mxPoint x="420" y="200" />
              <mxPoint x="540" y="200" />
            </Array>
            <mxPoint as="offset" />
          </mxGeometry>
        </mxCell>
        <mxCell id="HRsbSEC_UIwpaZMOYt87-119" value="" style="endArrow=block;endSize=16;endFill=0;html=1;rounded=1;exitX=0.5;exitY=0;exitDx=0;exitDy=0;entryX=0.5;entryY=1;entryDx=0;entryDy=0;labelBackgroundColor=none;strokeColor=#028090;fontColor=default;" parent="WIyWlLk6GJQsqaUBKTNV-1" source="HRsbSEC_UIwpaZMOYt87-25" target="HRsbSEC_UIwpaZMOYt87-22" edge="1">
          <mxGeometry width="160" relative="1" as="geometry">
            <mxPoint x="430" y="260" as="sourcePoint" />
            <mxPoint x="600" y="210" as="targetPoint" />
            <Array as="points">
              <mxPoint x="660" y="200" />
              <mxPoint x="540" y="200" />
            </Array>
            <mxPoint as="offset" />
          </mxGeometry>
        </mxCell>
        <mxCell id="HRsbSEC_UIwpaZMOYt87-120" value="" style="endArrow=block;endSize=16;endFill=0;html=1;rounded=1;labelBackgroundColor=none;strokeColor=#028090;fontColor=default;" parent="WIyWlLk6GJQsqaUBKTNV-1" edge="1">
          <mxGeometry width="160" relative="1" as="geometry">
            <mxPoint x="540" y="360" as="sourcePoint" />
            <mxPoint x="660" y="280" as="targetPoint" />
            <Array as="points">
              <mxPoint x="540" y="320" />
              <mxPoint x="660" y="320" />
            </Array>
            <mxPoint as="offset" />
          </mxGeometry>
        </mxCell>
        <mxCell id="HRsbSEC_UIwpaZMOYt87-121" value="" style="endArrow=block;endSize=16;endFill=0;html=1;rounded=1;entryX=0.5;entryY=1;entryDx=0;entryDy=0;labelBackgroundColor=none;strokeColor=#028090;fontColor=default;" parent="WIyWlLk6GJQsqaUBKTNV-1" target="HRsbSEC_UIwpaZMOYt87-25" edge="1">
          <mxGeometry width="160" relative="1" as="geometry">
            <mxPoint x="780" y="360" as="sourcePoint" />
            <mxPoint x="660" y="290" as="targetPoint" />
            <Array as="points">
              <mxPoint x="780" y="320" />
              <mxPoint x="660" y="320" />
            </Array>
            <mxPoint as="offset" />
          </mxGeometry>
        </mxCell>
        <mxCell id="HRsbSEC_UIwpaZMOYt87-123" value="" style="endArrow=block;endSize=16;endFill=0;html=1;rounded=1;fillColor=#F45B69;strokeColor=#028090;labelBackgroundColor=none;fontColor=default;" parent="WIyWlLk6GJQsqaUBKTNV-1" edge="1">
          <mxGeometry width="160" relative="1" as="geometry">
            <mxPoint x="1220" y="360" as="sourcePoint" />
            <mxPoint x="1340" y="280" as="targetPoint" />
            <Array as="points">
              <mxPoint x="1220" y="320" />
              <mxPoint x="1340" y="320" />
            </Array>
            <mxPoint as="offset" />
          </mxGeometry>
        </mxCell>
        <mxCell id="HRsbSEC_UIwpaZMOYt87-124" value="" style="endArrow=block;endSize=16;endFill=0;html=1;rounded=1;entryX=0.5;entryY=1;entryDx=0;entryDy=0;fillColor=#F45B69;strokeColor=#028090;labelBackgroundColor=none;fontColor=default;" parent="WIyWlLk6GJQsqaUBKTNV-1" target="HRsbSEC_UIwpaZMOYt87-36" edge="1">
          <mxGeometry width="160" relative="1" as="geometry">
            <mxPoint x="1460" y="360" as="sourcePoint" />
            <mxPoint x="1340" y="290" as="targetPoint" />
            <Array as="points">
              <mxPoint x="1460" y="320" />
              <mxPoint x="1340" y="320" />
            </Array>
            <mxPoint as="offset" />
          </mxGeometry>
        </mxCell>
        <mxCell id="HRsbSEC_UIwpaZMOYt87-133" value="M" style="text;html=1;align=center;verticalAlign=middle;resizable=0;points=[];autosize=1;strokeColor=none;fillColor=none;labelBackgroundColor=none;fontColor=#000000;" parent="WIyWlLk6GJQsqaUBKTNV-1" vertex="1">
          <mxGeometry x="790" y="530" width="30" height="30" as="geometry" />
        </mxCell>
        <mxCell id="HRsbSEC_UIwpaZMOYt87-135" value="" style="endArrow=open;endFill=1;endSize=12;html=1;rounded=1;exitX=0.5;exitY=1;exitDx=0;exitDy=0;entryX=0.5;entryY=0;entryDx=0;entryDy=0;labelBackgroundColor=none;strokeColor=#028090;fontColor=default;" parent="WIyWlLk6GJQsqaUBKTNV-1" source="HRsbSEC_UIwpaZMOYt87-59" target="HRsbSEC_UIwpaZMOYt87-71" edge="1">
          <mxGeometry width="160" relative="1" as="geometry">
            <mxPoint x="1020" y="380" as="sourcePoint" />
            <mxPoint x="1180" y="380" as="targetPoint" />
          </mxGeometry>
        </mxCell>
        <mxCell id="HRsbSEC_UIwpaZMOYt87-137" value="Ders Detay Ekranı" style="html=1;whiteSpace=wrap;rounded=1;labelBackgroundColor=none;fillColor=#F45B69;strokeColor=#028090;fontColor=#E4FDE1;" parent="WIyWlLk6GJQsqaUBKTNV-1" vertex="1">
          <mxGeometry x="830" y="610" width="130" height="40" as="geometry" />
        </mxCell>
        <mxCell id="HRsbSEC_UIwpaZMOYt87-139" value="" style="endArrow=block;startArrow=block;endFill=1;startFill=1;html=1;rounded=1;exitX=0.5;exitY=1;exitDx=0;exitDy=0;entryX=0.5;entryY=0;entryDx=0;entryDy=0;labelBackgroundColor=none;strokeColor=#028090;fontColor=default;" parent="WIyWlLk6GJQsqaUBKTNV-1" source="HRsbSEC_UIwpaZMOYt87-89" target="HRsbSEC_UIwpaZMOYt87-137" edge="1">
          <mxGeometry width="160" relative="1" as="geometry">
            <mxPoint x="830" y="580" as="sourcePoint" />
            <mxPoint x="990" y="580" as="targetPoint" />
          </mxGeometry>
        </mxCell>
        <mxCell id="HRsbSEC_UIwpaZMOYt87-148" value="detaylarıGöster" style="edgeLabel;html=1;align=center;verticalAlign=middle;resizable=0;points=[];rounded=1;labelBackgroundColor=none;fontColor=#000000;" parent="HRsbSEC_UIwpaZMOYt87-139" vertex="1" connectable="0">
          <mxGeometry x="0.04" y="-1" relative="1" as="geometry">
            <mxPoint as="offset" />
          </mxGeometry>
        </mxCell>
        <mxCell id="HRsbSEC_UIwpaZMOYt87-145" value="&lt;span style=&quot;text-wrap: nowrap;&quot;&gt;&lt;i&gt;Not Girme Ekranı&lt;/i&gt;&lt;/span&gt;" style="html=1;whiteSpace=wrap;rounded=1;labelBackgroundColor=none;fillColor=#F45B69;strokeColor=#028090;fontColor=#E4FDE1;" parent="WIyWlLk6GJQsqaUBKTNV-1" vertex="1">
          <mxGeometry x="1680" y="360" width="160" height="40" as="geometry" />
        </mxCell>
        <mxCell id="HRsbSEC_UIwpaZMOYt87-146" value="" style="endArrow=diamondThin;endFill=1;endSize=24;html=1;rounded=1;exitX=0;exitY=0.5;exitDx=0;exitDy=0;entryX=1;entryY=0.5;entryDx=0;entryDy=0;fillColor=#F45B69;strokeColor=#028090;labelBackgroundColor=none;fontColor=default;" parent="WIyWlLk6GJQsqaUBKTNV-1" source="HRsbSEC_UIwpaZMOYt87-145" target="HRsbSEC_UIwpaZMOYt87-50" edge="1">
          <mxGeometry width="160" relative="1" as="geometry">
            <mxPoint x="1840" y="360" as="sourcePoint" />
            <mxPoint x="1560" y="390" as="targetPoint" />
            <Array as="points" />
          </mxGeometry>
        </mxCell>
        <mxCell id="HRsbSEC_UIwpaZMOYt87-149" value="Belge" style="whiteSpace=wrap;html=1;rounded=1;labelBackgroundColor=none;fillColor=#F45B69;strokeColor=#028090;fontColor=#E4FDE1;" parent="WIyWlLk6GJQsqaUBKTNV-1" vertex="1">
          <mxGeometry x="2000" y="280" width="120" height="40" as="geometry" />
        </mxCell>
        <mxCell id="HRsbSEC_UIwpaZMOYt87-150" value="" style="endArrow=diamondThin;endFill=1;endSize=24;html=1;rounded=1;exitX=0;exitY=0.5;exitDx=0;exitDy=0;entryX=1;entryY=0.5;entryDx=0;entryDy=0;labelBackgroundColor=none;strokeColor=#028090;fontColor=default;" parent="WIyWlLk6GJQsqaUBKTNV-1" source="HRsbSEC_UIwpaZMOYt87-149" target="HRsbSEC_UIwpaZMOYt87-60" edge="1">
          <mxGeometry width="160" relative="1" as="geometry">
            <mxPoint x="2150" y="365" as="sourcePoint" />
            <mxPoint x="1870" y="335" as="targetPoint" />
            <Array as="points">
              <mxPoint x="1910" y="300" />
            </Array>
          </mxGeometry>
        </mxCell>
        <mxCell id="HRsbSEC_UIwpaZMOYt87-151" value="Transkript" style="whiteSpace=wrap;html=1;rounded=1;labelBackgroundColor=none;fillColor=#F45B69;strokeColor=#028090;fontColor=#E4FDE1;" parent="WIyWlLk6GJQsqaUBKTNV-1" vertex="1">
          <mxGeometry x="2120" y="400" width="120" height="40" as="geometry" />
        </mxCell>
        <mxCell id="HRsbSEC_UIwpaZMOYt87-157" value="Öğrenci Belgesi" style="whiteSpace=wrap;html=1;rounded=1;labelBackgroundColor=none;fillColor=#F45B69;strokeColor=#028090;fontColor=#E4FDE1;" parent="WIyWlLk6GJQsqaUBKTNV-1" vertex="1">
          <mxGeometry x="1880" y="400" width="120" height="40" as="geometry" />
        </mxCell>
        <mxCell id="HRsbSEC_UIwpaZMOYt87-158" value="" style="endArrow=block;endSize=16;endFill=0;html=1;rounded=1;exitX=0.5;exitY=0;exitDx=0;exitDy=0;entryX=0.5;entryY=1;entryDx=0;entryDy=0;labelBackgroundColor=none;strokeColor=#028090;fontColor=default;" parent="WIyWlLk6GJQsqaUBKTNV-1" source="HRsbSEC_UIwpaZMOYt87-157" target="HRsbSEC_UIwpaZMOYt87-149" edge="1">
          <mxGeometry width="160" relative="1" as="geometry">
            <mxPoint x="1940" y="455" as="sourcePoint" />
            <mxPoint x="2060" y="365" as="targetPoint" />
            <Array as="points">
              <mxPoint x="1940" y="360" />
              <mxPoint x="2000" y="360" />
              <mxPoint x="2060" y="360" />
            </Array>
            <mxPoint as="offset" />
          </mxGeometry>
        </mxCell>
        <mxCell id="HRsbSEC_UIwpaZMOYt87-159" value="" style="endArrow=block;endSize=16;endFill=0;html=1;rounded=1;exitX=0.5;exitY=0;exitDx=0;exitDy=0;entryX=0.5;entryY=1;entryDx=0;entryDy=0;labelBackgroundColor=none;strokeColor=#028090;fontColor=default;" parent="WIyWlLk6GJQsqaUBKTNV-1" target="HRsbSEC_UIwpaZMOYt87-149" edge="1">
          <mxGeometry width="160" relative="1" as="geometry">
            <mxPoint x="2180" y="400" as="sourcePoint" />
            <mxPoint x="2300" y="310" as="targetPoint" />
            <Array as="points">
              <mxPoint x="2180" y="360" />
              <mxPoint x="2060" y="360" />
            </Array>
            <mxPoint as="offset" />
          </mxGeometry>
        </mxCell>
        <mxCell id="HRsbSEC_UIwpaZMOYt87-161" value="" style="endArrow=block;startArrow=block;endFill=1;startFill=1;html=1;rounded=1;entryX=0;entryY=0.75;entryDx=0;entryDy=0;labelBackgroundColor=none;strokeColor=#028090;fontColor=default;exitX=0.5;exitY=1;exitDx=0;exitDy=0;" parent="WIyWlLk6GJQsqaUBKTNV-1" source="HRsbSEC_UIwpaZMOYt87-24" target="HRsbSEC_UIwpaZMOYt87-89" edge="1">
          <mxGeometry width="160" relative="1" as="geometry">
            <mxPoint x="423.21000000000004" y="276.61" as="sourcePoint" />
            <mxPoint x="480" y="610" as="targetPoint" />
            <Array as="points">
              <mxPoint x="423" y="530" />
            </Array>
          </mxGeometry>
        </mxCell>
        <mxCell id="HRsbSEC_UIwpaZMOYt87-162" value="aldğığDersler" style="edgeLabel;html=1;align=center;verticalAlign=middle;resizable=0;points=[];rounded=1;labelBackgroundColor=none;fontColor=#000000;" parent="HRsbSEC_UIwpaZMOYt87-161" vertex="1" connectable="0">
          <mxGeometry x="0.04" y="-1" relative="1" as="geometry">
            <mxPoint x="-87" y="-1" as="offset" />
          </mxGeometry>
        </mxCell>
        <mxCell id="HRsbSEC_UIwpaZMOYt87-163" value="" style="endArrow=block;startArrow=block;endFill=1;startFill=1;html=1;rounded=1;exitX=0;exitY=0.25;exitDx=0;exitDy=0;entryX=0;entryY=0.5;entryDx=0;entryDy=0;labelBackgroundColor=none;strokeColor=#028090;fontColor=default;" parent="WIyWlLk6GJQsqaUBKTNV-1" source="HRsbSEC_UIwpaZMOYt87-89" target="HRsbSEC_UIwpaZMOYt87-25" edge="1">
          <mxGeometry width="160" relative="1" as="geometry">
            <mxPoint x="915" y="560" as="sourcePoint" />
            <mxPoint x="915" y="630" as="targetPoint" />
            <Array as="points">
              <mxPoint x="460" y="510" />
              <mxPoint x="460" y="320" />
              <mxPoint x="520" y="320" />
              <mxPoint x="520" y="260" />
            </Array>
          </mxGeometry>
        </mxCell>
        <mxCell id="HRsbSEC_UIwpaZMOYt87-164" value="verdiğiDersler" style="edgeLabel;html=1;align=center;verticalAlign=middle;resizable=0;points=[];rounded=1;labelBackgroundColor=none;fontColor=#000000;" parent="HRsbSEC_UIwpaZMOYt87-163" vertex="1" connectable="0">
          <mxGeometry x="0.04" y="-1" relative="1" as="geometry">
            <mxPoint x="149" y="25" as="offset" />
          </mxGeometry>
        </mxCell>
        <mxCell id="HRsbSEC_UIwpaZMOYt87-165" value="" style="endArrow=block;startArrow=block;endFill=1;startFill=1;html=1;rounded=1;exitX=0;exitY=0.5;exitDx=0;exitDy=0;labelBackgroundColor=none;strokeColor=#028090;fontColor=default;entryX=0.5;entryY=0;entryDx=0;entryDy=0;" parent="WIyWlLk6GJQsqaUBKTNV-1" source="HRsbSEC_UIwpaZMOYt87-71" target="HRsbSEC_UIwpaZMOYt87-89" edge="1">
          <mxGeometry width="160" relative="1" as="geometry">
            <mxPoint x="894.5" y="430" as="sourcePoint" />
            <mxPoint x="894.5" y="500" as="targetPoint" />
            <Array as="points">
              <mxPoint x="895" y="470" />
            </Array>
          </mxGeometry>
        </mxCell>
        <mxCell id="HRsbSEC_UIwpaZMOYt87-166" value="seçebilenDersler" style="edgeLabel;html=1;align=center;verticalAlign=middle;resizable=0;points=[];rounded=1;labelBackgroundColor=none;fontColor=#000000;" parent="HRsbSEC_UIwpaZMOYt87-165" vertex="1" connectable="0">
          <mxGeometry x="0.04" y="-1" relative="1" as="geometry">
            <mxPoint as="offset" />
          </mxGeometry>
        </mxCell>
        <mxCell id="HRsbSEC_UIwpaZMOYt87-167" value="" style="endArrow=block;startArrow=block;endFill=1;startFill=1;html=1;rounded=1;exitX=0;exitY=0.5;exitDx=0;exitDy=0;labelBackgroundColor=none;strokeColor=#028090;fontColor=default;" parent="WIyWlLk6GJQsqaUBKTNV-1" source="HRsbSEC_UIwpaZMOYt87-22" edge="1">
          <mxGeometry width="160" relative="1" as="geometry">
            <mxPoint x="370" y="80" as="sourcePoint" />
            <mxPoint x="280" y="140" as="targetPoint" />
          </mxGeometry>
        </mxCell>
        <mxCell id="HRsbSEC_UIwpaZMOYt87-168" value="katılır" style="edgeLabel;html=1;align=center;verticalAlign=middle;resizable=0;points=[];rounded=1;labelBackgroundColor=none;fontColor=#000000;" parent="HRsbSEC_UIwpaZMOYt87-167" vertex="1" connectable="0">
          <mxGeometry x="0.04" y="-1" relative="1" as="geometry">
            <mxPoint as="offset" />
          </mxGeometry>
        </mxCell>
        <mxCell id="HRsbSEC_UIwpaZMOYt87-171" value="" style="endArrow=block;startArrow=block;endFill=1;startFill=1;html=1;rounded=1;exitX=0;exitY=0.5;exitDx=0;exitDy=0;labelBackgroundColor=none;strokeColor=#028090;fontColor=default;entryX=1;entryY=0.5;entryDx=0;entryDy=0;" parent="WIyWlLk6GJQsqaUBKTNV-1" source="HRsbSEC_UIwpaZMOYt87-37" target="HRsbSEC_UIwpaZMOYt87-22" edge="1">
          <mxGeometry width="160" relative="1" as="geometry">
            <mxPoint x="870" y="140" as="sourcePoint" />
            <mxPoint x="670" y="140" as="targetPoint" />
            <Array as="points">
              <mxPoint x="880" y="260" />
              <mxPoint x="880" y="200" />
              <mxPoint x="720" y="200" />
              <mxPoint x="720" y="140" />
            </Array>
          </mxGeometry>
        </mxCell>
        <mxCell id="HRsbSEC_UIwpaZMOYt87-172" value="girişYap" style="edgeLabel;html=1;align=center;verticalAlign=middle;resizable=0;points=[];rounded=1;labelBackgroundColor=none;fontColor=#000000;" parent="HRsbSEC_UIwpaZMOYt87-171" vertex="1" connectable="0">
          <mxGeometry x="0.04" y="-1" relative="1" as="geometry">
            <mxPoint as="offset" />
          </mxGeometry>
        </mxCell>
        <mxCell id="HRsbSEC_UIwpaZMOYt87-173" value="N" style="text;html=1;align=center;verticalAlign=middle;resizable=0;points=[];autosize=1;strokeColor=none;fillColor=none;labelBackgroundColor=none;fontColor=#000000;" parent="WIyWlLk6GJQsqaUBKTNV-1" vertex="1">
          <mxGeometry x="390" y="280" width="30" height="30" as="geometry" />
        </mxCell>
        <mxCell id="S6y_KCnDZLDPWBw1cH6A-22" value="" style="endArrow=block;endSize=16;endFill=0;html=1;rounded=1;fillColor=#F45B69;strokeColor=#028090;labelBackgroundColor=none;fontColor=default;" parent="WIyWlLk6GJQsqaUBKTNV-1" edge="1">
          <mxGeometry width="160" relative="1" as="geometry">
            <mxPoint x="1340" y="480" as="sourcePoint" />
            <mxPoint x="1460" y="400" as="targetPoint" />
            <Array as="points">
              <mxPoint x="1340" y="440" />
              <mxPoint x="1460" y="440" />
            </Array>
            <mxPoint as="offset" />
          </mxGeometry>
        </mxCell>
        <mxCell id="S6y_KCnDZLDPWBw1cH6A-23" value="" style="endArrow=block;endSize=16;endFill=0;html=1;rounded=1;entryX=0.5;entryY=1;entryDx=0;entryDy=0;fillColor=#F45B69;strokeColor=#028090;labelBackgroundColor=none;fontColor=default;" parent="WIyWlLk6GJQsqaUBKTNV-1" edge="1">
          <mxGeometry width="160" relative="1" as="geometry">
            <mxPoint x="1580" y="480" as="sourcePoint" />
            <mxPoint x="1460" y="400" as="targetPoint" />
            <Array as="points">
              <mxPoint x="1580" y="440" />
              <mxPoint x="1460" y="440" />
            </Array>
            <mxPoint as="offset" />
          </mxGeometry>
        </mxCell>
      </root>
    </mxGraphModel>
  </diagram>
</mxfile>
